<?xml version="1.0" encoding="UTF-8" standalone="no"?>
<!-- Created with Inkscape (http://www.inkscape.org/) -->

<svg
   width="341.49268"
   height="341.49268"
   viewBox="0 0 341.49268 341.49268"
   version="1.1"
   id="svg5"
   xmlns:xlink="http://www.w3.org/1999/xlink"
   xmlns="http://www.w3.org/2000/svg"
   xmlns:svg="http://www.w3.org/2000/svg">
  <defs
     id="defs2">
    <clipPath
       clipPathUnits="userSpaceOnUse"
       id="clipPath48777">
      <use
         x="0"
         y="0"
         xlink:href="#path1102"
         id="use48779"
         width="100%"
         height="100%"
         transform="translate(-59.762657,100.40154)" />
    </clipPath>
    <linearGradient
       xlink:href="#linearGradient111152"
       id="linearGradient111154"
       x1="1068.684"
       y1="466.71411"
       x2="1112.9871"
       y2="301.59415"
       gradientUnits="userSpaceOnUse" />
    <linearGradient
       id="linearGradient111152">
      <stop
         style="stop-color:#000000;stop-opacity:0.40000001"
         offset="0"
         id="stop111148" />
      <stop
         style="stop-color:#000000;stop-opacity:0"
         offset="1"
         id="stop111150" />
    </linearGradient>
    <linearGradient
       xlink:href="#linearGradient165600"
       id="linearGradient165602"
       x1="1157.0688"
       y1="136.85751"
       x2="1112.9871"
       y2="301.59415"
       gradientUnits="userSpaceOnUse" />
    <linearGradient
       id="linearGradient165600">
      <stop
         style="stop-color:#f20000;stop-opacity:1"
         offset="0"
         id="stop165596" />
      <stop
         style="stop-color:#da4b47;stop-opacity:1"
         offset="1"
         id="stop165598" />
    </linearGradient>
    <linearGradient
       xlink:href="#linearGradient221634"
       id="linearGradient87771"
       x1="1157.0688"
       y1="136.85751"
       x2="1112.9871"
       y2="301.59415"
       gradientUnits="userSpaceOnUse" />
    <linearGradient
       id="linearGradient221634">
      <stop
         style="stop-color:#ffffff;stop-opacity:0.40000001"
         offset="0"
         id="stop221630" />
      <stop
         style="stop-color:#ffffff;stop-opacity:0"
         offset="1"
         id="stop221632" />
    </linearGradient>
    <radialGradient
       xlink:href="#linearGradient221634"
       id="radialGradient182290"
       cx="595.6239"
       cy="917.85309"
       fx="595.6239"
       fy="917.85309"
       r="62.647717"
       gradientTransform="matrix(0.67985388,0,0,0.34890486,190.68669,597.60968)"
       gradientUnits="userSpaceOnUse" />
    <filter
       style="color-interpolation-filters:sRGB"
       id="filter182815"
       x="-0.31224127"
       y="-0.62641317"
       width="1.6244825"
       height="2.2528263">
      <feGaussianBlur
         stdDeviation="11.300003"
         id="feGaussianBlur182817" />
    </filter>
  </defs>
  <g
     id="layer1"
     transform="translate(-1001.8928,-30.63798)">
    <g
       id="g1565">
      <circle
         style="stop-color:#000000"
         id="path1102"
         cx="1116.2274"
         cy="-411.91562"
         r="170.74634"
         transform="rotate(30)" />
      <g
         id="g48169"
         clip-path="url(#clipPath48777)"
         transform="translate(59.762657,-100.40154)">
        <path
           style="font-variation-settings:normal;opacity:1;vector-effect:none;fill:#f2d8d8;fill-opacity:1;stroke-width:1;stroke-linecap:butt;stroke-linejoin:miter;stroke-miterlimit:4;stroke-dasharray:none;stroke-dashoffset:0;stroke-opacity:1;-inkscape-stroke:none;stop-color:#000000;stop-opacity:1"
           d="m 1267.0327,351.29555 42.4299,68.3696 -65.1887,81.1177 c 0,0 -148.6978,-4.23073 -154.3559,-3.56293 -5.6581,0.6678 -90.97167,-30.58872 -90.97167,-30.58872 0,0 -66.60542,-69.7958 -68.22613,-85.57288 -1.62071,-15.77708 -16.92544,-117.00691 -16.92544,-117.00691 l 8.79185,-77.89449 39.01937,73.93047 59.38822,34.98435 78.3043,10.32348 120.2457,3.93081 z"
           id="path59248" />
        <path
           style="fill:url(#linearGradient111154);fill-opacity:1"
           d="m 1267.0327,351.29555 42.4299,68.3696 -65.1887,81.1177 c 0,0 -148.6978,-4.23073 -154.3559,-3.56293 -5.6581,0.6678 -90.97167,-30.58872 -90.97167,-30.58872 0,0 -66.60542,-69.7958 -68.22613,-85.57288 -1.62071,-15.77708 -16.92544,-117.00691 -16.92544,-117.00691 l 8.79185,-77.89449 39.01937,73.93047 59.38822,34.98435 78.3043,10.32348 120.2457,3.93081 z"
           id="path111146" />
        <path
           style="fill:url(#linearGradient165602);fill-opacity:1;stroke:none;stroke-width:1px;stroke-linecap:butt;stroke-linejoin:miter;stroke-opacity:1"
           d="m 936.27526,223.97072 16.22974,-63.72778 74.4996,-45.41058 96.7832,-15.067127 188.4808,69.161677 18.8981,129.84894 -44.5745,74.37327 -27.1452,-36.65059 -80.0273,-38.23454 -174.9973,-1.10179 -50.85187,-37.42238 z"
           id="path50579" />
        <path
           style="fill:url(#linearGradient87771);fill-opacity:1;stroke:none;stroke-width:1px;stroke-linecap:butt;stroke-linejoin:miter;stroke-opacity:1"
           d="m 936.27526,223.97072 16.22974,-63.72778 74.4996,-45.41058 96.7832,-15.067127 188.4808,69.161677 18.8981,129.84894 -44.5745,74.37327 -27.1452,-36.65059 -80.0273,-38.23454 -174.9973,-1.10179 -50.85187,-37.42238 z"
           id="path87755" />
        <path
           style="color:#000000;fill:#333333;-inkscape-stroke:none"
           d="m 939.13867,11.171875 c -28.01395,147.654345 -15.30228,223.875235 22.57031,263.449215 37.8726,39.57399 96.34822,37.71684 151.34962,36.66211 55.0014,-1.05472 106.5287,-1.3068 137.2578,30.80274 30.7291,32.10953 45.2187,101.36534 17.6309,246.77343 l 18.666,3.54102 c 28.0139,-147.65433 15.3023,-223.87719 -22.5703,-263.45117 -37.8726,-39.57398 -96.3482,-37.71684 -151.3496,-36.66211 -55.0014,1.05473 -106.5288,1.30681 -137.25785,-30.80274 C 944.70648,229.37483 930.21886,160.121 957.80664,14.712891 Z"
           id="path49387" />
        <g
           id="g33052"
           transform="matrix(1.1579874,0.66856435,-0.66856435,1.1579874,-501.28451,-1049.0205)">
          <circle
             style="fill:#333333;fill-opacity:1;stroke:none;stroke-width:4.78923;stroke-linecap:round;stroke-miterlimit:4;stroke-dasharray:none;stop-color:#000000"
             id="path12588-2"
             cx="1550.5669"
             cy="271.29184"
             r="44.082794" />
          <circle
             style="font-variation-settings:normal;opacity:1;vector-effect:none;fill:#d3b6b6;fill-opacity:1;stroke:none;stroke-width:0.747871;stroke-linecap:butt;stroke-linejoin:miter;stroke-miterlimit:4;stroke-dasharray:none;stroke-dashoffset:0;stroke-opacity:1;-inkscape-stroke:none;stop-color:#000000;stop-opacity:1"
             id="circle12670-9"
             cx="1550.5669"
             cy="271.29184"
             r="30.817259" />
          <circle
             style="fill:#c5a0a0;fill-opacity:1;stroke:#9b5f5f;stroke-width:3;stroke-linecap:round;stroke-miterlimit:4;stroke-dasharray:none;stroke-opacity:1;stop-color:#000000"
             id="circle14582-1"
             cx="1550.5669"
             cy="271.29184"
             r="20.133856" />
        </g>
      </g>
      <ellipse
         style="font-variation-settings:normal;mix-blend-mode:normal;fill:url(#radialGradient182290);fill-opacity:1;stroke:none;stroke-width:21.1805;stroke-linecap:butt;stroke-linejoin:round;stroke-miterlimit:4;stroke-dasharray:none;stroke-dashoffset:0;stroke-opacity:1;paint-order:stroke markers fill;filter:url(#filter182815);stop-color:#000000"
         id="path180101"
         cx="595.6239"
         cy="917.85309"
         rx="43.427967"
         ry="21.64706"
         transform="rotate(-45,-147.4282,-92.951009)" />
    </g>
  </g>
</svg>
